<?xml version="1.0" standalone="no"?>
<!DOCTYPE svg PUBLIC "-//W3C//DTD SVG 20010904//EN"
 "http://www.w3.org/TR/2001/REC-SVG-20010904/DTD/svg10.dtd">
<svg version="1.0" xmlns="http://www.w3.org/2000/svg"
 width="225.000000pt" height="225.000000pt" viewBox="0 0 225.000000 225.000000"
 preserveAspectRatio="xMidYMid meet">

<g transform="translate(0.000000,225.000000) scale(0.100000,-0.100000)"
fill="#000000" stroke="none">
<path d="M330 1390 l0 -290 390 0 390 0 0 49 0 50 -42 6 c-24 3 -153 16 -288
30 -135 14 -266 28 -292 31 l-48 6 0 104 c0 99 1 104 23 109 12 2 153 23 312
45 160 22 300 43 313 45 19 5 22 12 22 55 l0 50 -390 0 -390 0 0 -290z"/>
<path d="M840 1525 c-124 -19 -262 -39 -308 -45 l-83 -12 3 -92 3 -91 320 -34
320 -33 328 33 327 33 0 93 c0 51 -2 93 -3 93 -2 0 -145 20 -317 45 -172 25
-325 45 -339 44 -14 -1 -127 -16 -251 -34z m587 -25 l302 -43 3 -75 c2 -40 -1
-77 -6 -80 -5 -3 -147 -20 -314 -38 l-304 -32 -317 34 c-174 18 -317 33 -318
34 -2 0 -3 35 -3 78 l0 79 318 45 c174 25 322 44 327 43 6 -1 146 -22 312 -45z"/>
<path d="M633 1453 c-21 -4 -23 -10 -23 -79 0 -59 3 -74 15 -74 11 0 15 11 15
40 0 51 17 51 38 0 l17 -40 228 0 227 0 0 40 c0 22 5 40 11 40 6 0 18 -18 26
-40 l16 -40 204 0 c174 0 203 2 203 15 0 13 -28 15 -193 15 l-194 0 -11 25
c-14 31 -5 59 17 49 9 -3 24 -9 34 -11 31 -9 18 -25 -14 -18 -24 5 -30 4 -27
-6 6 -18 65 -24 84 -8 10 8 14 8 14 0 0 -6 18 -11 45 -11 25 0 45 5 45 10 0 6
-11 10 -24 10 -14 0 -28 5 -31 10 -4 6 5 10 19 10 17 0 26 6 26 16 0 8 -3 13
-7 11 -5 -3 -17 -1 -28 4 -16 6 -14 8 13 8 52 1 40 26 -13 26 -44 0 -45 -1
-45 -32 l0 -32 -30 17 -30 17 26 3 c21 3 23 6 13 18 -14 17 -50 19 -66 3 -8
-8 -17 -8 -31 0 -11 6 -34 11 -51 11 -25 0 -31 -4 -32 -22 0 -13 -3 -17 -6
-10 -3 7 -16 18 -30 23 -36 14 -73 -12 -73 -51 0 -55 52 -78 90 -40 20 20 20
20 20 -5 l0 -25 -204 0 -204 0 -10 30 c-7 18 -7 32 -1 35 19 12 9 46 -17 55
-14 6 -26 9 -27 9 -1 -1 -12 -4 -24 -6z m47 -33 c0 -5 -9 -10 -21 -10 -11 0
-17 5 -14 10 3 6 13 10 21 10 8 0 14 -4 14 -10z m398 -23 c2 -19 -1 -27 -13
-27 -19 0 -30 24 -21 46 9 23 31 11 34 -19z m102 23 c0 -5 -7 -10 -15 -10 -8
0 -15 5 -15 10 0 6 7 10 15 10 8 0 15 -4 15 -10z"/>
<path d="M720 1403 l0 -53 45 0 c25 0 45 5 45 10 0 6 -13 10 -30 10 -16 0 -30
5 -30 10 0 6 11 10 25 10 14 0 25 5 25 10 0 6 -11 10 -25 10 -14 0 -25 5 -25
10 0 6 14 10 30 10 47 0 35 18 -15 22 l-45 3 0 -52z"/>
<path d="M827 1442 c-20 -22 -22 -63 -5 -80 18 -18 75 -15 82 4 9 24 -2 30
-26 15 -24 -15 -42 -3 -36 25 2 13 14 18 51 19 l47 2 0 -38 c0 -28 4 -39 15
-39 9 0 15 9 15 24 0 35 10 56 27 56 8 0 13 5 11 11 -6 17 -88 20 -95 3 -4
-11 -7 -11 -20 1 -20 20 -46 19 -66 -3z"/>
<path d="M1441 1413 c-8 -21 -15 -43 -18 -48 -2 -6 33 -11 92 -13 60 -2 95 1
95 8 0 5 -9 10 -20 10 -17 0 -20 7 -20 40 0 33 -3 40 -19 40 -17 0 -20 -8 -23
-47 l-3 -48 -16 45 c-21 60 -49 66 -68 13z"/>
<path d="M1165 1310 c3 -5 8 -10 11 -10 2 0 4 5 4 10 0 6 -5 10 -11 10 -5 0
-7 -4 -4 -10z"/>
<path d="M1430 1000 c0 -15 7 -20 25 -20 18 0 25 5 25 20 0 15 -7 20 -25 20
-18 0 -25 -5 -25 -20z"/>
<path d="M540 900 c0 -27 3 -30 30 -30 l30 0 0 -85 0 -85 30 0 30 0 0 85 0 85
30 0 c27 0 30 3 30 30 l0 30 -90 0 -90 0 0 -30z"/>
<path d="M750 815 l0 -115 30 0 c27 0 30 3 30 31 0 28 2 30 33 27 27 -2 33 -8
35 -30 3 -24 8 -28 33 -28 27 0 29 3 29 35 0 23 -6 38 -15 42 -14 5 -14 7 0
23 11 12 15 32 13 61 -4 55 -28 69 -120 69 l-68 0 0 -115z m128 28 c-2 -23 -8
-29 -35 -31 -31 -3 -33 -1 -33 27 0 29 3 31 36 31 33 0 35 -2 32 -27z"/>
<path d="M970 837 c0 -126 8 -137 100 -137 92 0 100 11 100 137 l0 93 -30 0
-29 0 -3 -87 -3 -88 -35 0 -35 0 -3 88 -3 87 -29 0 -30 0 0 -93z"/>
<path d="M1243 923 c-7 -2 -13 -13 -13 -24 0 -16 3 -18 19 -9 32 17 69 12 85
-12 9 -12 16 -25 16 -29 0 -4 -25 -9 -55 -11 -64 -5 -95 -28 -95 -70 0 -58 75
-89 128 -52 20 14 22 14 22 0 0 -10 9 -16 21 -16 20 0 21 4 17 96 -3 86 -5 98
-27 115 -22 18 -87 25 -118 12z m107 -133 c0 -24 -34 -60 -56 -60 -22 0 -54
19 -54 32 0 25 34 48 72 48 31 0 38 -3 38 -20z"/>
<path d="M1440 815 c0 -106 2 -116 18 -113 15 3 17 16 17 113 0 97 -2 110 -17
113 -16 3 -18 -7 -18 -113z"/>
<path d="M1524 917 c-2 -7 -3 -58 -2 -113 3 -85 5 -99 21 -102 14 -3 17 5 18
55 0 86 17 126 57 138 17 5 32 15 32 22 0 19 -50 16 -72 -4 -17 -15 -18 -15
-18 0 0 20 -28 23 -36 4z"/>
<path d="M1687 919 c-25 -15 -47 -63 -47 -104 0 -72 43 -115 115 -115 46 0 65
9 65 31 0 16 -3 18 -19 9 -33 -17 -71 -11 -96 15 -45 45 -35 55 56 55 l82 0
-6 36 c-9 54 -42 84 -91 84 -23 0 -49 -5 -59 -11z m97 -41 c9 -12 16 -26 16
-30 0 -5 -27 -8 -60 -8 -60 0 -61 0 -49 23 23 43 68 51 93 15z"/>
<path d="M260 890 c0 -27 3 -30 30 -30 38 0 39 -15 3 -28 l-28 -10 28 -11 c36
-14 35 -31 -3 -31 -28 0 -30 -3 -30 -35 0 -33 2 -35 34 -35 30 0 35 4 38 27 4
38 24 39 33 1 l7 -33 11 33 c12 40 23 41 31 2 5 -27 10 -30 41 -30 33 0 35 2
35 34 0 30 -4 35 -27 38 -36 4 -40 24 -6 33 l28 7 -27 10 c-37 13 -36 28 2 28
27 0 30 3 30 30 l0 30 -115 0 -115 0 0 -30z"/>
<path d="M1820 770 c0 -5 5 -10 10 -10 6 0 10 5 10 10 0 6 -4 10 -10 10 -5 0
-10 -4 -10 -10z"/>
<path d="M430 449 c-7 -11 -9 -23 -7 -26 3 -2 8 5 12 16 3 11 14 22 23 24 16
4 16 5 0 6 -10 0 -22 -8 -28 -20z"/>
<path d="M490 451 c0 -10 7 -21 15 -25 20 -7 19 -24 -2 -29 -17 -4 -17 -5 0
-6 26 -2 33 27 11 44 -17 13 -17 16 -4 25 13 8 13 10 -2 10 -11 0 -18 -8 -18
-19z"/>
<path d="M542 450 c0 -14 2 -19 5 -12 2 6 2 18 0 25 -3 6 -5 1 -5 -13z"/>
<path d="M570 456 c0 -8 5 -18 10 -21 6 -3 10 1 10 9 0 8 -4 18 -10 21 -5 3
-10 -1 -10 -9z"/>
<path d="M1073 430 c0 -25 2 -35 4 -22 2 12 2 32 0 45 -2 12 -4 2 -4 -23z"/>
<path d="M1186 461 c-4 -5 3 -7 14 -4 23 6 26 13 6 13 -8 0 -17 -4 -20 -9z"/>
<path d="M663 425 c0 -22 2 -30 4 -17 2 12 2 30 0 40 -3 9 -5 -1 -4 -23z"/>
<path d="M910 426 c0 -28 4 -36 18 -36 13 0 14 2 3 9 -8 5 -12 18 -8 30 3 12
1 24 -4 27 -5 3 -9 -11 -9 -30z"/>
<path d="M682 420 c0 -19 2 -27 5 -17 2 9 2 25 0 35 -3 9 -5 1 -5 -18z"/>
<path d="M744 435 c-9 -23 3 -45 23 -44 17 1 17 2 1 6 -10 2 -18 14 -18 25 0
14 5 18 15 14 8 -3 15 -1 15 4 0 16 -30 11 -36 -5z"/>
<path d="M801 423 c-1 -27 3 -33 19 -33 16 0 20 6 19 33 -2 30 -2 30 -6 5 -2
-16 -8 -28 -13 -28 -5 0 -11 12 -13 28 -4 25 -4 25 -6 -5z"/>
<path d="M860 433 c0 -10 4 -14 8 -8 4 6 11 13 16 18 5 4 2 7 -7 7 -10 0 -17
-8 -17 -17z"/>
<path d="M951 418 c2 -28 2 -29 6 -8 3 14 10 28 17 32 7 5 5 8 -6 8 -14 0 -18
-8 -17 -32z"/>
<path d="M992 420 c0 -19 2 -27 5 -17 2 9 2 25 0 35 -3 9 -5 1 -5 -18z"/>
<path d="M1028 443 c6 -2 12 -13 12 -24 0 -20 -15 -26 -23 -9 -3 6 -4 5 -3 -2
1 -7 10 -14 19 -16 13 -3 17 4 17 27 0 23 -4 31 -17 30 -11 0 -13 -3 -5 -6z"/>
<path d="M1100 436 c0 -8 7 -17 16 -20 8 -3 12 -11 8 -17 -5 -8 -3 -9 5 -5 9
6 8 12 -4 26 -13 14 -13 19 -3 23 8 4 7 6 -4 6 -10 1 -18 -5 -18 -13z"/>
<path d="M1234 435 c-9 -23 4 -47 23 -43 10 2 18 11 19 21 1 12 1 13 -3 2 -2
-8 -11 -15 -19 -15 -20 0 -17 38 4 43 16 4 16 5 -1 6 -10 0 -20 -6 -23 -14z"/>
<path d="M1292 420 c0 -19 2 -27 5 -17 2 9 2 25 0 35 -3 9 -5 1 -5 -18z"/>
<path d="M1318 420 c2 -16 6 -30 8 -30 2 0 4 14 4 30 0 17 -4 30 -8 30 -5 0
-7 -13 -4 -30z"/>
<path d="M1348 420 c2 -16 6 -30 8 -30 2 0 4 14 4 30 0 17 -4 30 -8 30 -5 0
-7 -13 -4 -30z"/>
<path d="M1381 408 c0 -24 3 -37 6 -30 2 6 11 12 19 12 9 0 14 11 14 30 0 23
-4 30 -20 30 -17 0 -20 -6 -19 -42z m29 12 c0 -11 -4 -20 -10 -20 -5 0 -10 9
-10 20 0 11 5 20 10 20 6 0 10 -9 10 -20z"/>
<path d="M1448 443 c7 -3 16 -2 19 1 4 3 -2 6 -13 5 -11 0 -14 -3 -6 -6z"/>
<path d="M1492 420 c0 -19 2 -27 5 -17 2 9 2 25 0 35 -3 9 -5 1 -5 -18z"/>
<path d="M1552 420 c0 -19 2 -27 5 -17 2 9 2 25 0 35 -3 9 -5 1 -5 -18z"/>
<path d="M1587 444 c-4 -4 -7 -18 -7 -31 0 -18 5 -23 23 -22 16 1 18 2 5 6
-10 2 -18 13 -18 24 0 20 15 26 23 9 3 -6 4 -5 3 2 -3 14 -20 21 -29 12z"/>
<path d="M1636 441 c-3 -5 1 -15 10 -22 14 -12 14 -14 -3 -20 -16 -7 -15 -8 5
-8 26 -1 30 24 5 34 -17 7 -16 8 2 15 16 7 17 9 3 9 -9 1 -19 -3 -22 -8z"/>
<path d="M601 433 c0 -6 -4 -20 -7 -30 -5 -14 -4 -15 5 -7 7 7 11 20 8 30 -3
11 -5 14 -6 7z"/>
<path d="M1171 433 c-2 -25 12 -43 33 -42 20 0 20 1 2 8 -11 4 -23 16 -27 27
-4 10 -8 14 -8 7z"/>
<path d="M1464 410 c0 -11 4 -20 8 -20 4 0 8 9 8 20 0 11 -4 20 -8 20 -4 0 -8
-9 -8 -20z"/>
<path d="M550 405 c0 -8 5 -15 10 -15 6 0 10 7 10 15 0 8 -4 15 -10 15 -5 0
-10 -7 -10 -15z"/>
<path d="M883 405 c0 -8 4 -12 9 -9 5 3 6 10 3 15 -9 13 -12 11 -12 -6z"/>
<path d="M438 398 c5 -5 16 -8 23 -6 8 3 3 7 -10 11 -17 4 -21 3 -13 -5z"/>
</g>
</svg>
